<?xml version="1.0" encoding="iso-8859-1"?>
<!-- Generator: Adobe Illustrator 19.0.0, SVG Export Plug-In . SVG Version: 6.00 Build 0)  -->
<svg version="1.1" id="Layer_1" xmlns="http://www.w3.org/2000/svg" xmlns:xlink="http://www.w3.org/1999/xlink" x="0px" y="0px"
	 viewBox="0 0 512 512" style="enable-background:new 0 0 512 512;" xml:space="preserve">
<g>
	<g>
		<g>
			<path d="M416,213.333c5.896,0,10.667-4.771,10.667-10.667v-21.333c0-5.896-4.771-10.667-10.667-10.667H96
				c-5.896,0-10.667,4.771-10.667,10.667v21.333c0,5.896,4.771,10.667,10.667,10.667H416z"/>
			<path d="M501.333,298.667H10.667C4.771,298.667,0,303.438,0,309.333v21.333c0,5.896,4.771,10.667,10.667,10.667h490.667
				c5.896,0,10.667-4.771,10.667-10.667v-21.333C512,303.438,507.229,298.667,501.333,298.667z"/>
			<path d="M416,426.667H96c-5.896,0-10.667,4.771-10.667,10.667v21.333c0,5.896,4.771,10.667,10.667,10.667h320
				c5.896,0,10.667-4.771,10.667-10.667v-21.333C426.667,431.438,421.896,426.667,416,426.667z"/>
			<path d="M501.333,42.667H10.667C4.771,42.667,0,47.438,0,53.333v21.333c0,5.896,4.771,10.667,10.667,10.667h490.667
				c5.896,0,10.667-4.771,10.667-10.667V53.333C512,47.438,507.229,42.667,501.333,42.667z"/>
		</g>
	</g>
</g>
<g>
</g>
<g>
</g>
<g>
</g>
<g>
</g>
<g>
</g>
<g>
</g>
<g>
</g>
<g>
</g>
<g>
</g>
<g>
</g>
<g>
</g>
<g>
</g>
<g>
</g>
<g>
</g>
<g>
</g>
</svg>
