<svg height="511pt" viewBox="-41 1 511 511.99999" width="511pt" xmlns="http://www.w3.org/2000/svg"><path d="m302.046875 326.128906h127.3125v170.183594h-127.3125zm0 0" fill="#e83842"/><path d="m429.355469 15.691406v365.558594l-379.910157 50.742188-48.941406 6.535156v-365.558594c.101563-31.640625 20.648438-58.355469 48.941406-68.554688 7.9375-2.855468 16.484376-4.414062 25.367188-4.414062h338.851562c4.34375 0 8.253907 1.757812 11.097657 4.59375 2.835937 2.84375 4.59375 6.753906 4.59375 11.097656zm0 0" fill="#fc5f61"/><path d="m49.445312 4.414062v427.578126l-48.941406 6.535156v-365.558594c.101563-31.640625 20.648438-58.355469 48.941406-68.554688zm0 0" fill="#e83842"/><path d="m405.996094 494.574219-306.824219 4.183593-55.085937-8.371093-26.503907-38.355469 6.277344-40.449219 20.917969-20.921875 80.199218-16.734375h224.890626l55.429687 23.023438c-4.574219 6.503906-7.960937 13.578125-10.160156 20.910156-1.546875 5.132813-2.507813 10.394531-2.886719 15.6875-.238281 3.484375-.238281 6.976563 0 10.460937.378906 5.292969 1.339844 10.554688 2.886719 15.691407 2.199219 7.332031 5.585937 14.402343 10.160156 20.910156zm0 0" fill="#e6e6e6"/><path d="m31.890625 439.777344c.535156 22.847656 19.761719 40.84375 42.613281 40.84375h339.164063c8.664062 0 15.6875 7.023437 15.6875 15.6875 0 8.667968-7.023438 15.691406-15.6875 15.691406h-339.945313c-20.222656 0-38.527344-8.199219-51.777344-21.441406-13.296874-13.308594-21.511718-31.710938-21.445312-52.027344.132812-40.519531 33.789062-72.972656 74.3125-72.972656h338.855469c8.664062 0 15.6875 7.023437 15.6875 15.691406 0 8.664062-7.023438 15.6875-15.6875 15.6875h-339.945313c-23.410156 0-42.378906 19.3125-41.832031 42.839844zm0 0" fill="#e83842"/><path d="m395.136719 417.855469c-1.546875 5.136719-2.507813 10.398437-2.886719 15.691406h-307.023438c-4.328124 0-7.84375-3.515625-7.84375-7.84375 0-4.332031 3.515626-7.847656 7.84375-7.847656zm0 0" fill="#fff"/><path d="m395.136719 459.699219h-309.910157c-4.328124 0-7.84375-3.515625-7.84375-7.847657 0-4.328124 3.515626-7.84375 7.84375-7.84375h307.023438c.378906 5.292969 1.339844 10.554688 2.886719 15.691407zm0 0" fill="#fff"/><path d="m356.011719 192.769531h-227.167969c-12.652344 0-22.914062-10.261719-22.914062-22.914062v-60.859375c0-12.65625 10.261718-22.914063 22.914062-22.914063h227.167969c12.652343 0 22.914062 10.257813 22.914062 22.914063v60.859375c0 12.652343-10.261719 22.914062-22.914062 22.914062zm0 0" fill="#e6e6e6"/><g fill="#545d68"><path d="m338.132812 164.019531h-191.410156c-4.332031 0-7.84375-3.511719-7.84375-7.84375s3.511719-7.84375 7.84375-7.84375h191.410156c4.332032 0 7.84375 3.511719 7.84375 7.84375s-3.511718 7.84375-7.84375 7.84375zm0 0"/><path d="m338.132812 130.519531h-191.410156c-4.332031 0-7.84375-3.511719-7.84375-7.84375s3.511719-7.847656 7.84375-7.847656h191.410156c4.332032 0 7.84375 3.515625 7.84375 7.847656s-3.511718 7.84375-7.84375 7.84375zm0 0"/></g></svg>