<?xml version="1.0" encoding="iso-8859-1"?>
<!-- Generator: Adobe Illustrator 18.1.1, SVG Export Plug-In . SVG Version: 6.00 Build 0)  -->
<svg version="1.1" id="Capa_1" xmlns="http://www.w3.org/2000/svg" xmlns:xlink="http://www.w3.org/1999/xlink" x="0px" y="0px"
	 viewBox="0 0 492.592 492.592" style="enable-background:new 0 0 492.592 492.592;" xml:space="preserve">
<g>
	<g>
		<path style="fill:#010002;" d="M246.296,86.561c-91.829,0-178.886,51.673-232.876,138.218L0,246.296l13.42,21.508
			C67.41,354.357,154.467,406.03,246.296,406.03s178.886-51.673,232.876-138.218l13.42-21.516l-13.42-21.516
			C425.181,138.235,338.124,86.561,246.296,86.561z M246.296,365.388c-81.229,0-153.305-46.812-198.394-119.092
			c45.089-72.279,117.165-119.092,198.394-119.092s153.305,46.812,198.394,119.092C399.601,318.575,327.525,365.388,246.296,365.388
			z"/>
		<path style="fill:#010002;" d="M246.296,145.526c-55.656,0-100.77,45.114-100.77,100.77s45.114,100.77,100.77,100.77
			s100.77-45.114,100.77-100.77S301.952,145.526,246.296,145.526z M207.36,178.333c12.648,0,22.898,10.25,22.898,22.898
			s-10.25,22.898-22.898,22.898s-22.898-10.25-22.898-22.898S194.712,178.333,207.36,178.333z M246.296,322.013
			c-40.375,0-73.1-23.565-73.1-63.939c0-40.375,32.726,2.276,73.1,2.276s73.1-42.651,73.1-2.276
			C319.396,298.441,286.67,322.013,246.296,322.013z"/>
	</g>
</g>
<g>
</g>
<g>
</g>
<g>
</g>
<g>
</g>
<g>
</g>
<g>
</g>
<g>
</g>
<g>
</g>
<g>
</g>
<g>
</g>
<g>
</g>
<g>
</g>
<g>
</g>
<g>
</g>
<g>
</g>
</svg>
